<svg width="1200" height="900" viewBox="0 0 1200 900" fill="none" xmlns="http://www.w3.org/2000/svg">
  <defs>
    <linearGradient id="bg" x1="118" y1="102" x2="1073" y2="808" gradientUnits="userSpaceOnUse">
      <stop stop-color="#031B1A"/>
      <stop offset="0.55" stop-color="#0B4F4C"/>
      <stop offset="1" stop-color="#87E4C1"/>
    </linearGradient>
    <linearGradient id="panel" x1="203" y1="153" x2="954" y2="698" gradientUnits="userSpaceOnUse">
      <stop stop-color="#0E2A29" stop-opacity="0.96"/>
      <stop offset="1" stop-color="#112F2D" stop-opacity="0.82"/>
    </linearGradient>
    <linearGradient id="card" x1="0" y1="0" x2="1" y2="1">
      <stop stop-color="#143E3A"/>
      <stop offset="1" stop-color="#0B2423"/>
    </linearGradient>
    <filter id="shadow" x="135" y="109" width="930" height="714" filterUnits="userSpaceOnUse" color-interpolation-filters="sRGB">
      <feDropShadow dx="0" dy="24" stdDeviation="30" flood-color="#021312" flood-opacity="0.36"/>
    </filter>
  </defs>

  <rect width="1200" height="900" fill="url(#bg)"/>
  <circle cx="1037" cy="138" r="109" fill="#C7FFF0" fill-opacity="0.08"/>
  <circle cx="176" cy="758" r="134" fill="#BCFFE8" fill-opacity="0.08"/>
  <path d="M155 227C238 177 345 166 429 198C515 231 570 314 654 351C744 390 857 379 952 339" stroke="#B9FFE6" stroke-opacity="0.22" stroke-width="3" stroke-linecap="round"/>

  <g filter="url(#shadow)">
    <rect x="170" y="128" width="860" height="654" rx="42" fill="url(#panel)"/>
    <rect x="170" y="128" width="860" height="654" rx="42" stroke="#D9FFF6" stroke-opacity="0.12" stroke-width="2"/>
  </g>

  <circle cx="224" cy="176" r="8" fill="#8EEFC9"/>
  <circle cx="252" cy="176" r="8" fill="#63BFA2"/>
  <circle cx="280" cy="176" r="8" fill="#2A7C74"/>
  <text x="215" y="246" fill="#F3FEFA" font-family="Arial, sans-serif" font-size="52" font-weight="700">EcoSphere</text>
  <text x="215" y="287" fill="#B1E8D9" font-family="Arial, sans-serif" font-size="24">Live environmental intelligence dashboard</text>
  <text x="215" y="340" fill="#C7F6E9" fill-opacity="0.75" font-family="Arial, sans-serif" font-size="20">Air quality, emissions, and sustainability data in one control room.</text>

  <rect x="214" y="387" width="245" height="126" rx="28" fill="url(#card)"/>
  <rect x="485" y="387" width="245" height="126" rx="28" fill="url(#card)"/>
  <rect x="756" y="387" width="211" height="126" rx="28" fill="url(#card)"/>

  <text x="248" y="432" fill="#8DDAC0" font-family="Arial, sans-serif" font-size="18">Carbon Reduction</text>
  <text x="248" y="487" fill="#F7FFFC" font-family="Arial, sans-serif" font-size="42" font-weight="700">-18.6%</text>
  <text x="519" y="432" fill="#8DDAC0" font-family="Arial, sans-serif" font-size="18">Energy Efficiency</text>
  <text x="519" y="487" fill="#F7FFFC" font-family="Arial, sans-serif" font-size="42" font-weight="700">94.2</text>

  <text x="790" y="432" fill="#8DDAC0" font-family="Arial, sans-serif" font-size="18">Sensors</text>
  <text x="790" y="487" fill="#F7FFFC" font-family="Arial, sans-serif" font-size="42" font-weight="700">128</text>

  <rect x="214" y="540" width="494" height="192" rx="30" fill="url(#card)"/>
  <text x="246" y="585" fill="#D9FFF3" font-family="Arial, sans-serif" font-size="22">Weekly Emissions Trend</text>
  <path d="M250 671L312 644L373 656L435 607L496 619L558 582L620 567L674 535" stroke="#87E4C1" stroke-width="8" stroke-linecap="round" stroke-linejoin="round"/>
  <path d="M250 691H674" stroke="#C7FFF0" stroke-opacity="0.14" stroke-width="2"/>
  <path d="M250 647H674" stroke="#C7FFF0" stroke-opacity="0.08" stroke-width="2"/>
  <path d="M250 603H674" stroke="#C7FFF0" stroke-opacity="0.08" stroke-width="2"/>
  <circle cx="558" cy="582" r="11" fill="#D6FFF3"/>
  <circle cx="674" cy="535" r="11" fill="#D6FFF3"/>

  <rect x="734" y="540" width="233" height="192" rx="30" fill="url(#card)"/>
  <text x="766" y="585" fill="#D9FFF3" font-family="Arial, sans-serif" font-size="22">System Health</text>
  <circle cx="850" cy="642" r="63" stroke="#2B5E59" stroke-width="22"/>
  <path d="M850 579C872 579 893 591 905 610C918 629 920 653 911 673C902 693 883 708 861 712" stroke="#8EF0CB" stroke-width="22" stroke-linecap="round"/>
  <text x="820" y="650" fill="#FAFFFD" font-family="Arial, sans-serif" font-size="34" font-weight="700">86%</text>
  <path d="M789 261C814 235 857 233 884 256C911 279 912 322 887 347C864 370 826 374 798 357C775 343 762 320 762 294C762 274 773 252 789 241" stroke="#99F8D5" stroke-width="8" stroke-linecap="round"/>
  <path d="M822 250C828 270 817 291 797 300" stroke="#99F8D5" stroke-width="8" stroke-linecap="round"/>
  <circle cx="872" cy="286" r="7" fill="#D7FFF3"/>
</svg>
