<svg width="1200" height="900" viewBox="0 0 1200 900" fill="none" xmlns="http://www.w3.org/2000/svg">
  <defs>
    <linearGradient id="bg" x1="118" y1="106" x2="1068" y2="802" gradientUnits="userSpaceOnUse">
      <stop stop-color="#121826"/>
      <stop offset="0.5" stop-color="#1E3557"/>
      <stop offset="1" stop-color="#FF8A5B"/>
    </linearGradient>
    <linearGradient id="panel" x1="182" y1="129" x2="937" y2="742" gradientUnits="userSpaceOnUse">
      <stop stop-color="#121826" stop-opacity="0.96"/>
      <stop offset="1" stop-color="#18263D" stop-opacity="0.9"/>
    </linearGradient>
    <linearGradient id="accent" x1="783" y1="528" x2="973" y2="706" gradientUnits="userSpaceOnUse">
      <stop stop-color="#FFB38C"/>
      <stop offset="1" stop-color="#FF8450"/>
    </linearGradient>
    <filter id="shadow" x="143" y="112" width="923" height="716" filterUnits="userSpaceOnUse" color-interpolation-filters="sRGB">
      <feDropShadow dx="0" dy="24" stdDeviation="28" flood-color="#050B12" flood-opacity="0.34"/>
    </filter>
  </defs>

  <rect width="1200" height="900" fill="url(#bg)"/>
  <circle cx="1011" cy="156" r="120" fill="#FFC1A5" fill-opacity="0.16"/>
  <circle cx="184" cy="746" r="112" fill="#FFA67E" fill-opacity="0.14"/>

  <g filter="url(#shadow)">
    <rect x="170" y="126" width="860" height="662" rx="44" fill="url(#panel)"/>
    <rect x="170" y="126" width="860" height="662" rx="44" stroke="#FFFFFF" stroke-opacity="0.08" stroke-width="2"/>
  </g>

  <circle cx="224" cy="176" r="8" fill="#FF8C5B"/>
  <circle cx="252" cy="176" r="8" fill="#FFAA80"/>
  <circle cx="280" cy="176" r="8" fill="#FFD0BB"/>
  <text x="218" y="247" fill="#F8FAFC" font-family="Arial, sans-serif" font-size="52" font-weight="700">Pulse Social</text>
  <text x="218" y="289" fill="#CBD5E1" font-family="Arial, sans-serif" font-size="24">Creator collaboration, publishing, and engagement tracking</text>

  <rect x="218" y="340" width="418" height="398" rx="34" fill="#0F172A"/>
  <rect x="218" y="340" width="418" height="398" rx="34" stroke="#FFFFFF" stroke-opacity="0.08" stroke-width="2"/>
  <text x="250" y="386" fill="#E2E8F0" font-family="Arial, sans-serif" font-size="22">Content Calendar</text>
  <rect x="250" y="416" width="354" height="290" rx="24" fill="#152238"/>
  <path d="M250 494H604" stroke="#FFFFFF" stroke-opacity="0.08" stroke-width="2"/>
  <path d="M250 572H604" stroke="#FFFFFF" stroke-opacity="0.08" stroke-width="2"/>
  <path d="M250 650H604" stroke="#FFFFFF" stroke-opacity="0.08" stroke-width="2"/>
  <path d="M339 416V706" stroke="#FFFFFF" stroke-opacity="0.08" stroke-width="2"/>
  <path d="M428 416V706" stroke="#FFFFFF" stroke-opacity="0.08" stroke-width="2"/>
  <path d="M517 416V706" stroke="#FFFFFF" stroke-opacity="0.08" stroke-width="2"/>
  <rect x="362" y="522" width="144" height="66" rx="18" fill="#FF8C5B"/>
  <rect x="274" y="603" width="116" height="50" rx="18" fill="#4D7DD6"/>
  <rect x="454" y="438" width="90" height="42" rx="16" fill="#F8FAFC"/>

  <rect x="662" y="340" width="312" height="174" rx="30" fill="#0F172A"/>
  <rect x="662" y="340" width="312" height="174" rx="30" stroke="#FFFFFF" stroke-opacity="0.08" stroke-width="2"/>
  <text x="694" y="385" fill="#E2E8F0" font-family="Arial, sans-serif" font-size="20">Reach</text>
  <text x="694" y="438" fill="#F8FAFC" font-family="Arial, sans-serif" font-size="42" font-weight="700">218K</text>
  <path d="M694 470H942" stroke="#FFFFFF" stroke-opacity="0.08" stroke-width="10" stroke-linecap="round"/>
  <path d="M694 470H874" stroke="#FF8C5B" stroke-width="10" stroke-linecap="round"/>

  <rect x="662" y="540" width="312" height="198" rx="30" fill="url(#accent)"/>
  <text x="694" y="586" fill="#26150F" font-family="Arial, sans-serif" font-size="22" font-weight="700">Community Highlights</text>
  <circle cx="722" cy="640" r="24" fill="#FFF2EC"/>
  <rect x="758" y="626" width="168" height="12" rx="6" fill="#FFE8DD"/>
  <rect x="758" y="650" width="132" height="10" rx="5" fill="#FFD5C3"/>
  <circle cx="722" cy="700" r="24" fill="#FFF2EC"/>
  <rect x="758" y="686" width="156" height="12" rx="6" fill="#FFE8DD"/>
  <rect x="758" y="710" width="118" height="10" rx="5" fill="#FFD5C3"/>
</svg>
