<svg width="1200" height="900" viewBox="0 0 1200 900" fill="none" xmlns="http://www.w3.org/2000/svg">
  <defs>
    <linearGradient id="bg" x1="137" y1="118" x2="1042" y2="789" gradientUnits="userSpaceOnUse">
      <stop stop-color="#111827"/>
      <stop offset="0.45" stop-color="#1F2937"/>
      <stop offset="1" stop-color="#D8A24A"/>
    </linearGradient>
    <linearGradient id="panel" x1="183" y1="126" x2="936" y2="745" gradientUnits="userSpaceOnUse">
      <stop stop-color="#111827" stop-opacity="0.96"/>
      <stop offset="1" stop-color="#182231" stop-opacity="0.9"/>
    </linearGradient>
    <linearGradient id="accent" x1="762" y1="315" x2="961" y2="654" gradientUnits="userSpaceOnUse">
      <stop stop-color="#F7BE5C"/>
      <stop offset="1" stop-color="#C98A1B"/>
    </linearGradient>
    <filter id="shadow" x="140" y="112" width="925" height="717" filterUnits="userSpaceOnUse" color-interpolation-filters="sRGB">
      <feDropShadow dx="0" dy="22" stdDeviation="28" flood-color="#05080E" flood-opacity="0.4"/>
    </filter>
  </defs>

  <rect width="1200" height="900" fill="url(#bg)"/>
  <circle cx="1004" cy="154" r="126" fill="#F9D38D" fill-opacity="0.18"/>
  <circle cx="163" cy="736" r="130" fill="#F5B84B" fill-opacity="0.14"/>

  <g filter="url(#shadow)">
    <rect x="170" y="126" width="860" height="662" rx="44" fill="url(#panel)"/>
    <rect x="170" y="126" width="860" height="662" rx="44" stroke="#FFFFFF" stroke-opacity="0.08" stroke-width="2"/>
  </g>

  <circle cx="224" cy="176" r="8" fill="#F6B646"/>
  <circle cx="252" cy="176" r="8" fill="#D8972A"/>
  <circle cx="280" cy="176" r="8" fill="#7B5B1E"/>
  <text x="218" y="247" fill="#F8FAFC" font-family="Arial, sans-serif" font-size="52" font-weight="700">Quantum DS</text>
  <text x="218" y="289" fill="#CBD5E1" font-family="Arial, sans-serif" font-size="24">Tokens, patterns, and components for fast product teams</text>

  <rect x="218" y="334" width="296" height="164" rx="30" fill="#0F172A"/>
  <rect x="218" y="334" width="296" height="164" rx="30" stroke="#FFFFFF" stroke-opacity="0.08" stroke-width="2"/>
  <text x="249" y="379" fill="#E2E8F0" font-family="Arial, sans-serif" font-size="20">Color Tokens</text>
  <circle cx="277" cy="432" r="24" fill="#F7BE5C"/>
  <circle cx="342" cy="432" r="24" fill="#63B3ED"/>
  <circle cx="407" cy="432" r="24" fill="#34D399"/>
  <circle cx="472" cy="432" r="24" fill="#F8FAFC"/>
  <rect x="249" y="468" width="232" height="12" rx="6" fill="#1F2937"/>
  <rect x="249" y="468" width="168" height="12" rx="6" fill="#F7BE5C"/>

  <rect x="540" y="334" width="436" height="164" rx="30" fill="#0F172A"/>
  <rect x="540" y="334" width="436" height="164" rx="30" stroke="#FFFFFF" stroke-opacity="0.08" stroke-width="2"/>
  <text x="572" y="379" fill="#E2E8F0" font-family="Arial, sans-serif" font-size="20">Component Variants</text>
  <rect x="572" y="404" width="108" height="50" rx="25" fill="url(#accent)"/>
  <rect x="694" y="404" width="108" height="50" rx="25" fill="#F8FAFC"/>
  <rect x="816" y="404" width="128" height="50" rx="18" fill="#1E293B" stroke="#F7BE5C" stroke-width="2"/>
  <rect x="572" y="469" width="160" height="14" rx="7" fill="#FFFFFF" fill-opacity="0.12"/>
  <rect x="756" y="469" width="118" height="14" rx="7" fill="#FFFFFF" fill-opacity="0.12"/>

  <rect x="218" y="531" width="360" height="208" rx="32" fill="#0F172A"/>
  <rect x="218" y="531" width="360" height="208" rx="32" stroke="#FFFFFF" stroke-opacity="0.08" stroke-width="2"/>
  <text x="250" y="576" fill="#E2E8F0" font-family="Arial, sans-serif" font-size="20">Spacing Scale</text>
  <rect x="250" y="608" width="52" height="52" rx="16" fill="#1E293B"/>
  <rect x="322" y="592" width="84" height="84" rx="22" fill="#334155"/>
  <rect x="432" y="568" width="124" height="132" rx="28" fill="#F7BE5C" fill-opacity="0.88"/>
  <text x="259" y="639" fill="#94A3B8" font-family="Arial, sans-serif" font-size="20">4</text>
  <text x="351" y="639" fill="#E2E8F0" font-family="Arial, sans-serif" font-size="20">8</text>
  <text x="479" y="639" fill="#111827" font-family="Arial, sans-serif" font-size="22" font-weight="700">16</text>

  <rect x="606" y="531" width="370" height="208" rx="32" fill="#0F172A"/>
  <rect x="606" y="531" width="370" height="208" rx="32" stroke="#FFFFFF" stroke-opacity="0.08" stroke-width="2"/>
  <text x="638" y="576" fill="#E2E8F0" font-family="Arial, sans-serif" font-size="20">Documentation</text>
  <rect x="638" y="606" width="306" height="20" rx="10" fill="#FFFFFF" fill-opacity="0.12"/>
  <rect x="638" y="640" width="250" height="16" rx="8" fill="#FFFFFF" fill-opacity="0.08"/>
  <rect x="638" y="670" width="278" height="16" rx="8" fill="#FFFFFF" fill-opacity="0.08"/>
  <rect x="638" y="700" width="210" height="16" rx="8" fill="#FFFFFF" fill-opacity="0.08"/>
</svg>
